<?xml version="1.0" standalone="no"?>
<!DOCTYPE svg PUBLIC "-//W3C//DTD SVG 20010904//EN"
 "http://www.w3.org/TR/2001/REC-SVG-20010904/DTD/svg10.dtd">
<svg version="1.0" xmlns="http://www.w3.org/2000/svg"
 width="512.000000pt" height="512.000000pt" viewBox="0 0 512.000000 512.000000"
 preserveAspectRatio="xMidYMid meet">
<metadata>
Created by potrace 1.14, written by Peter Selinger 2001-2017
</metadata>
<g transform="translate(0.000000,512.000000) scale(0.100000,-0.100000)"
fill="#000000" stroke="none">
<path d="M1207 5093 c70 -47 194 -153 200 -171 4 -9 22 -40 40 -69 76 -120
143 -303 159 -437 3 -22 7 -43 9 -46 8 -12 19 -215 19 -340 0 -117 -9 -298
-18 -365 -3 -16 -8 -64 -11 -105 -4 -41 -9 -77 -10 -80 -2 -3 -6 -34 -10 -70
-4 -36 -8 -67 -10 -70 -2 -3 -6 -30 -10 -60 -4 -30 -9 -58 -12 -62 -2 -5 -2
-8 1 -8 2 0 74 138 159 308 85 169 183 362 217 430 l63 123 60 -163 c122 -336
198 -544 207 -563 5 -11 16 -40 24 -65 8 -25 76 -211 151 -415 76 -203 147
-399 160 -435 12 -36 34 -96 48 -135 15 -38 21 -62 14 -52 -7 11 -34 52 -60
92 -27 40 -80 108 -119 149 -299 322 -661 349 -948 72 -132 -128 -239 -340
-264 -522 -13 -89 -13 -104 -5 -98 5 3 9 12 9 20 0 21 35 86 66 123 75 89 262
169 439 186 39 4 79 9 90 12 28 5 238 4 308 -2 165 -14 377 -93 474 -177 84
-71 105 -114 248 -503 75 -203 166 -449 202 -545 36 -96 67 -183 69 -193 2
-10 6 -27 9 -37 46 -145 37 -418 -20 -585 -21 -60 -81 -184 -101 -206 -8 -8
-14 -19 -14 -22 0 -4 442 -7 982 -7 936 0 981 1 962 18 -10 9 -55 44 -99 77
-74 56 -290 263 -345 330 -186 229 -263 364 -359 635 -29 80 -56 154 -61 165
-5 11 -16 40 -24 65 -8 25 -19 56 -25 70 -6 14 -49 133 -97 265 -121 336 -152
420 -181 500 -14 39 -33 93 -43 120 -10 28 -32 88 -50 135 -18 47 -33 90 -34
95 -2 6 -6 17 -9 25 -4 8 -40 107 -81 220 -83 230 -356 981 -478 1315 -44 121
-105 288 -135 370 -30 83 -72 197 -93 255 -21 58 -67 184 -102 280 l-63 175
-769 3 -769 2 40 -27z"/>
<path d="M1146 1685 c-9 -13 -16 -27 -16 -31 0 -10 -336 -676 -413 -819 -226
-419 -382 -631 -587 -798 l-45 -37 618 0 618 0 -25 32 c-87 116 -169 357 -191
563 -4 33 -9 71 -11 85 -5 29 -5 387 0 440 2 19 6 76 10 127 4 50 8 99 10 110
2 10 7 43 10 73 16 124 37 264 42 272 13 20 -5 5 -20 -17z"/>
</g>
</svg>
